%TF.GenerationSoftware,KiCad,Pcbnew,7.0.6-7.0.6~ubuntu22.04.1*%
%TF.CreationDate,2023-08-04T21:53:36+03:00*%
%TF.ProjectId,pedal_assist_sensor,70656461-6c5f-4617-9373-6973745f7365,rev?*%
%TF.SameCoordinates,PX3d09000PY6052340*%
%TF.FileFunction,Legend,Top*%
%TF.FilePolarity,Positive*%
%FSLAX46Y46*%
G04 Gerber Fmt 4.6, Leading zero omitted, Abs format (unit mm)*
G04 Created by KiCad (PCBNEW 7.0.6-7.0.6~ubuntu22.04.1) date 2023-08-04 21:53:36*
%MOMM*%
%LPD*%
G01*
G04 APERTURE LIST*
%ADD10C,0.150000*%
%ADD11C,0.120000*%
G04 APERTURE END LIST*
D10*
X10038095Y-6054819D02*
X10038095Y-6864342D01*
X10038095Y-6864342D02*
X10085714Y-6959580D01*
X10085714Y-6959580D02*
X10133333Y-7007200D01*
X10133333Y-7007200D02*
X10228571Y-7054819D01*
X10228571Y-7054819D02*
X10419047Y-7054819D01*
X10419047Y-7054819D02*
X10514285Y-7007200D01*
X10514285Y-7007200D02*
X10561904Y-6959580D01*
X10561904Y-6959580D02*
X10609523Y-6864342D01*
X10609523Y-6864342D02*
X10609523Y-6054819D01*
X11609523Y-7054819D02*
X11038095Y-7054819D01*
X11323809Y-7054819D02*
X11323809Y-6054819D01*
X11323809Y-6054819D02*
X11228571Y-6197676D01*
X11228571Y-6197676D02*
X11133333Y-6292914D01*
X11133333Y-6292914D02*
X11038095Y-6340533D01*
X2554819Y-2861904D02*
X3364342Y-2861904D01*
X3364342Y-2861904D02*
X3459580Y-2814285D01*
X3459580Y-2814285D02*
X3507200Y-2766666D01*
X3507200Y-2766666D02*
X3554819Y-2671428D01*
X3554819Y-2671428D02*
X3554819Y-2480952D01*
X3554819Y-2480952D02*
X3507200Y-2385714D01*
X3507200Y-2385714D02*
X3459580Y-2338095D01*
X3459580Y-2338095D02*
X3364342Y-2290476D01*
X3364342Y-2290476D02*
X2554819Y-2290476D01*
X2650057Y-1861904D02*
X2602438Y-1814285D01*
X2602438Y-1814285D02*
X2554819Y-1719047D01*
X2554819Y-1719047D02*
X2554819Y-1480952D01*
X2554819Y-1480952D02*
X2602438Y-1385714D01*
X2602438Y-1385714D02*
X2650057Y-1338095D01*
X2650057Y-1338095D02*
X2745295Y-1290476D01*
X2745295Y-1290476D02*
X2840533Y-1290476D01*
X2840533Y-1290476D02*
X2983390Y-1338095D01*
X2983390Y-1338095D02*
X3554819Y-1909523D01*
X3554819Y-1909523D02*
X3554819Y-1290476D01*
X14054819Y-2861904D02*
X14864342Y-2861904D01*
X14864342Y-2861904D02*
X14959580Y-2814285D01*
X14959580Y-2814285D02*
X15007200Y-2766666D01*
X15007200Y-2766666D02*
X15054819Y-2671428D01*
X15054819Y-2671428D02*
X15054819Y-2480952D01*
X15054819Y-2480952D02*
X15007200Y-2385714D01*
X15007200Y-2385714D02*
X14959580Y-2338095D01*
X14959580Y-2338095D02*
X14864342Y-2290476D01*
X14864342Y-2290476D02*
X14054819Y-2290476D01*
X14054819Y-1909523D02*
X14054819Y-1290476D01*
X14054819Y-1290476D02*
X14435771Y-1623809D01*
X14435771Y-1623809D02*
X14435771Y-1480952D01*
X14435771Y-1480952D02*
X14483390Y-1385714D01*
X14483390Y-1385714D02*
X14531009Y-1338095D01*
X14531009Y-1338095D02*
X14626247Y-1290476D01*
X14626247Y-1290476D02*
X14864342Y-1290476D01*
X14864342Y-1290476D02*
X14959580Y-1338095D01*
X14959580Y-1338095D02*
X15007200Y-1385714D01*
X15007200Y-1385714D02*
X15054819Y-1480952D01*
X15054819Y-1480952D02*
X15054819Y-1766666D01*
X15054819Y-1766666D02*
X15007200Y-1861904D01*
X15007200Y-1861904D02*
X14959580Y-1909523D01*
D11*
%TO.C,U4*%
X740000Y-7300000D02*
X740000Y-9100000D01*
X740000Y-7300000D02*
X740000Y-6500000D01*
X3860000Y-7300000D02*
X3860000Y-8100000D01*
X3860000Y-7300000D02*
X3860000Y-6500000D01*
%TO.C,U1*%
X10900000Y-3990000D02*
X7300000Y-3990000D01*
X10900000Y-3990000D02*
X13100000Y-3990000D01*
X10900000Y-9210000D02*
X8700000Y-9210000D01*
X10900000Y-9210000D02*
X13100000Y-9210000D01*
%TO.C,C3*%
X9310000Y-1984420D02*
X9310000Y-2265580D01*
X8290000Y-1984420D02*
X8290000Y-2265580D01*
%TO.C,C1*%
X5384420Y-8140000D02*
X5665580Y-8140000D01*
X5384420Y-9160000D02*
X5665580Y-9160000D01*
%TO.C,D1*%
X4065000Y-7885000D02*
X5535000Y-7885000D01*
X5535000Y-7885000D02*
X5535000Y-5600000D01*
X4065000Y-5600000D02*
X4065000Y-7885000D01*
%TO.C,U2*%
X5700000Y-540000D02*
X4025000Y-540000D01*
X5700000Y-540000D02*
X6350000Y-540000D01*
X5700000Y-3660000D02*
X5050000Y-3660000D01*
X5700000Y-3660000D02*
X6350000Y-3660000D01*
%TO.C,R1*%
X5777500Y-6637258D02*
X5777500Y-6162742D01*
X6822500Y-6637258D02*
X6822500Y-6162742D01*
%TO.C,C2*%
X2265580Y-5010000D02*
X1984420Y-5010000D01*
X2265580Y-3990000D02*
X1984420Y-3990000D01*
%TO.C,U3*%
X12000000Y-540000D02*
X10325000Y-540000D01*
X12000000Y-540000D02*
X12650000Y-540000D01*
X12000000Y-3660000D02*
X11350000Y-3660000D01*
X12000000Y-3660000D02*
X12650000Y-3660000D01*
%TD*%
M02*
