%TF.GenerationSoftware,KiCad,Pcbnew,7.0.6-7.0.6~ubuntu22.04.1*%
%TF.CreationDate,2023-08-04T21:53:36+03:00*%
%TF.ProjectId,pedal_assist_sensor,70656461-6c5f-4617-9373-6973745f7365,rev?*%
%TF.SameCoordinates,PX3d09000PY6052340*%
%TF.FileFunction,Copper,L1,Top*%
%TF.FilePolarity,Positive*%
%FSLAX46Y46*%
G04 Gerber Fmt 4.6, Leading zero omitted, Abs format (unit mm)*
G04 Created by KiCad (PCBNEW 7.0.6-7.0.6~ubuntu22.04.1) date 2023-08-04 21:53:36*
%MOMM*%
%LPD*%
G01*
G04 APERTURE LIST*
G04 Aperture macros list*
%AMRoundRect*
0 Rectangle with rounded corners*
0 $1 Rounding radius*
0 $2 $3 $4 $5 $6 $7 $8 $9 X,Y pos of 4 corners*
0 Add a 4 corners polygon primitive as box body*
4,1,4,$2,$3,$4,$5,$6,$7,$8,$9,$2,$3,0*
0 Add four circle primitives for the rounded corners*
1,1,$1+$1,$2,$3*
1,1,$1+$1,$4,$5*
1,1,$1+$1,$6,$7*
1,1,$1+$1,$8,$9*
0 Add four rect primitives between the rounded corners*
20,1,$1+$1,$2,$3,$4,$5,0*
20,1,$1+$1,$4,$5,$6,$7,0*
20,1,$1+$1,$6,$7,$8,$9,0*
20,1,$1+$1,$8,$9,$2,$3,0*%
G04 Aperture macros list end*
%TA.AperFunction,SMDPad,CuDef*%
%ADD10RoundRect,0.150000X0.150000X-0.512500X0.150000X0.512500X-0.150000X0.512500X-0.150000X-0.512500X0*%
%TD*%
%TA.AperFunction,SMDPad,CuDef*%
%ADD11RoundRect,0.100000X-0.637500X-0.100000X0.637500X-0.100000X0.637500X0.100000X-0.637500X0.100000X0*%
%TD*%
%TA.AperFunction,SMDPad,CuDef*%
%ADD12RoundRect,0.225000X-0.250000X0.225000X-0.250000X-0.225000X0.250000X-0.225000X0.250000X0.225000X0*%
%TD*%
%TA.AperFunction,SMDPad,CuDef*%
%ADD13RoundRect,0.225000X-0.225000X-0.250000X0.225000X-0.250000X0.225000X0.250000X-0.225000X0.250000X0*%
%TD*%
%TA.AperFunction,SMDPad,CuDef*%
%ADD14RoundRect,0.218750X0.256250X-0.218750X0.256250X0.218750X-0.256250X0.218750X-0.256250X-0.218750X0*%
%TD*%
%TA.AperFunction,SMDPad,CuDef*%
%ADD15RoundRect,0.150000X-0.587500X-0.150000X0.587500X-0.150000X0.587500X0.150000X-0.587500X0.150000X0*%
%TD*%
%TA.AperFunction,SMDPad,CuDef*%
%ADD16RoundRect,0.200000X0.275000X-0.200000X0.275000X0.200000X-0.275000X0.200000X-0.275000X-0.200000X0*%
%TD*%
%TA.AperFunction,SMDPad,CuDef*%
%ADD17RoundRect,0.225000X0.225000X0.250000X-0.225000X0.250000X-0.225000X-0.250000X0.225000X-0.250000X0*%
%TD*%
%TA.AperFunction,ComponentPad*%
%ADD18R,1.700000X1.700000*%
%TD*%
%TA.AperFunction,ComponentPad*%
%ADD19O,1.700000X1.700000*%
%TD*%
%TA.AperFunction,Conductor*%
%ADD20C,0.400000*%
%TD*%
G04 APERTURE END LIST*
D10*
%TO.P,U4,1,IN*%
%TO.N,/5V*%
X1350000Y-8437500D03*
%TO.P,U4,2,GND*%
%TO.N,GND*%
X2300000Y-8437500D03*
%TO.P,U4,3,EN*%
%TO.N,/5V*%
X3250000Y-8437500D03*
%TO.P,U4,4,NC*%
%TO.N,unconnected-(U4-NC-Pad4)*%
X3250000Y-6162500D03*
%TO.P,U4,5,OUT*%
%TO.N,VCC*%
X1350000Y-6162500D03*
%TD*%
D11*
%TO.P,U1,1,VCC*%
%TO.N,VCC*%
X8037500Y-4650000D03*
%TO.P,U1,2,PA4*%
%TO.N,Net-(U1-PA4)*%
X8037500Y-5300000D03*
%TO.P,U1,3,PA5*%
%TO.N,unconnected-(U1-PA5-Pad3)*%
X8037500Y-5950000D03*
%TO.P,U1,4,PA6*%
%TO.N,Net-(U1-PA6)*%
X8037500Y-6600000D03*
%TO.P,U1,5,PA7*%
%TO.N,unconnected-(U1-PA7-Pad5)*%
X8037500Y-7250000D03*
%TO.P,U1,6,PB3*%
%TO.N,Net-(U1-PB3)*%
X8037500Y-7900000D03*
%TO.P,U1,7,PB2*%
%TO.N,unconnected-(U1-PB2-Pad7)*%
X8037500Y-8550000D03*
%TO.P,U1,8,PB1*%
%TO.N,unconnected-(U1-PB1-Pad8)*%
X13762500Y-8550000D03*
%TO.P,U1,9,PB0*%
%TO.N,unconnected-(U1-PB0-Pad9)*%
X13762500Y-7900000D03*
%TO.P,U1,10,~{RESET}/PA0*%
%TO.N,/UPDI*%
X13762500Y-7250000D03*
%TO.P,U1,11,PA1*%
%TO.N,/USART_TX*%
X13762500Y-6600000D03*
%TO.P,U1,12,PA2*%
%TO.N,/OUT*%
X13762500Y-5950000D03*
%TO.P,U1,13,PA3*%
%TO.N,unconnected-(U1-PA3-Pad13)*%
X13762500Y-5300000D03*
%TO.P,U1,14,GND*%
%TO.N,GND*%
X13762500Y-4650000D03*
%TD*%
D12*
%TO.P,C3,1*%
%TO.N,VCC*%
X8800000Y-1350000D03*
%TO.P,C3,2*%
%TO.N,GND*%
X8800000Y-2900000D03*
%TD*%
D13*
%TO.P,C1,1*%
%TO.N,/5V*%
X4750000Y-8650000D03*
%TO.P,C1,2*%
%TO.N,GND*%
X6300000Y-8650000D03*
%TD*%
D14*
%TO.P,D1,1,K*%
%TO.N,GND*%
X4800000Y-7187500D03*
%TO.P,D1,2,A*%
%TO.N,Net-(D1-A)*%
X4800000Y-5612500D03*
%TD*%
D15*
%TO.P,U2,1,VCC*%
%TO.N,VCC*%
X4762500Y-1150000D03*
%TO.P,U2,2,OUT*%
%TO.N,Net-(U1-PA4)*%
X4762500Y-3050000D03*
%TO.P,U2,3,GND*%
%TO.N,GND*%
X6637500Y-2100000D03*
%TD*%
D16*
%TO.P,R1,1*%
%TO.N,Net-(U1-PB3)*%
X6300000Y-7225000D03*
%TO.P,R1,2*%
%TO.N,Net-(D1-A)*%
X6300000Y-5575000D03*
%TD*%
D17*
%TO.P,C2,1*%
%TO.N,VCC*%
X2900000Y-4500000D03*
%TO.P,C2,2*%
%TO.N,GND*%
X1350000Y-4500000D03*
%TD*%
D15*
%TO.P,U3,1,VCC*%
%TO.N,VCC*%
X11062500Y-1150000D03*
%TO.P,U3,2,OUT*%
%TO.N,Net-(U1-PA6)*%
X11062500Y-3050000D03*
%TO.P,U3,3,GND*%
%TO.N,GND*%
X12937500Y-2100000D03*
%TD*%
D18*
%TO.P,J2,1,Pin_1*%
%TO.N,/5V*%
X3130000Y-11200000D03*
D19*
%TO.P,J2,2,Pin_2*%
%TO.N,GND*%
X5670000Y-11200000D03*
%TO.P,J2,3,Pin_3*%
%TO.N,/OUT*%
X8210000Y-11200000D03*
%TO.P,J2,4,Pin_4*%
%TO.N,/UPDI*%
X10750000Y-11200000D03*
%TO.P,J2,5,Pin_5*%
%TO.N,/USART_TX*%
X13290000Y-11200000D03*
%TD*%
D20*
%TO.N,/5V*%
X3250000Y-8437500D02*
X3250000Y-7750000D01*
X1825000Y-7325000D02*
X1800000Y-7300000D01*
X3250000Y-11080000D02*
X3130000Y-11200000D01*
X2825000Y-7325000D02*
X1825000Y-7325000D01*
X4750000Y-8600000D02*
X3412500Y-8600000D01*
X3412500Y-8600000D02*
X3250000Y-8437500D01*
X1350000Y-7750000D02*
X1350000Y-8437500D01*
X1800000Y-7300000D02*
X1350000Y-7750000D01*
X3250000Y-8437500D02*
X3250000Y-11080000D01*
X3250000Y-7750000D02*
X2825000Y-7325000D01*
%TO.N,GND*%
X2600000Y-400000D02*
X14500000Y-400000D01*
X6537500Y-2100000D02*
X7300000Y-2100000D01*
X13762500Y-4650000D02*
X15600000Y-4650000D01*
X8100000Y-2900000D02*
X8800000Y-2900000D01*
X15650000Y-12250000D02*
X15300000Y-12600000D01*
X5600000Y-12600000D02*
X1000000Y-12600000D01*
X4800000Y-7187500D02*
X4837500Y-7187500D01*
X9400000Y-2900000D02*
X8800000Y-2900000D01*
X15600000Y-4650000D02*
X15650000Y-4600000D01*
X400000Y-4600000D02*
X400000Y-2600000D01*
X400000Y-12000000D02*
X400000Y-11300000D01*
X15100000Y-1000000D02*
X15650000Y-1550000D01*
X4837500Y-7187500D02*
X6300000Y-8650000D01*
X15300000Y-12600000D02*
X5600000Y-12600000D01*
X12837500Y-2100000D02*
X15550000Y-2100000D01*
X15650000Y-1550000D02*
X15650000Y-2000000D01*
X5600000Y-12600000D02*
X5670000Y-12530000D01*
X400000Y-10100000D02*
X400000Y-11200000D01*
X500000Y-4500000D02*
X400000Y-4600000D01*
X7300000Y-2100000D02*
X8100000Y-2900000D01*
X6300000Y-8650000D02*
X6300000Y-10570000D01*
X15550000Y-2100000D02*
X15650000Y-2000000D01*
X5670000Y-12530000D02*
X5670000Y-11200000D01*
X400000Y-2600000D02*
X2600000Y-400000D01*
X400000Y-4600000D02*
X400000Y-10100000D01*
X1350000Y-4500000D02*
X500000Y-4500000D01*
X1000000Y-12600000D02*
X400000Y-12000000D01*
X1198528Y-10100000D02*
X400000Y-10100000D01*
X14500000Y-400000D02*
X15100000Y-1000000D01*
X12837500Y-2100000D02*
X10200000Y-2100000D01*
X2300000Y-8998528D02*
X1198528Y-10100000D01*
X15650000Y-2000000D02*
X15650000Y-4600000D01*
X2300000Y-8437500D02*
X2300000Y-8998528D01*
X15650000Y-4600000D02*
X15650000Y-12250000D01*
X6300000Y-10570000D02*
X5670000Y-11200000D01*
X10200000Y-2100000D02*
X9400000Y-2900000D01*
%TO.N,VCC*%
X3400000Y-1400000D02*
X3400000Y-4300000D01*
X1350000Y-6050000D02*
X2900000Y-4500000D01*
X8037500Y-4650000D02*
X3050000Y-4650000D01*
X10962500Y-1150000D02*
X3650000Y-1150000D01*
X3050000Y-4650000D02*
X2900000Y-4500000D01*
X3400000Y-4300000D02*
X3050000Y-4650000D01*
X1350000Y-6162500D02*
X1350000Y-6050000D01*
X3650000Y-1150000D02*
X3400000Y-1400000D01*
%TO.N,Net-(D1-A)*%
X4837500Y-5575000D02*
X4800000Y-5612500D01*
X6300000Y-5575000D02*
X4837500Y-5575000D01*
%TO.N,/USART_TX*%
X13762500Y-6600000D02*
X14627817Y-6600000D01*
X15000000Y-9480000D02*
X13280000Y-11200000D01*
X14627817Y-6600000D02*
X15000000Y-6972183D01*
X15000000Y-6972183D02*
X15000000Y-9480000D01*
%TO.N,/UPDI*%
X12897183Y-7250000D02*
X12300000Y-7847183D01*
X12300000Y-9700000D02*
X10800000Y-11200000D01*
X12300000Y-7847183D02*
X12300000Y-9700000D01*
X13762500Y-7250000D02*
X12897183Y-7250000D01*
X10800000Y-11200000D02*
X10740000Y-11200000D01*
%TO.N,/OUT*%
X11400000Y-7447183D02*
X11400000Y-8300000D01*
X8500000Y-11200000D02*
X8200000Y-11200000D01*
X11400000Y-8300000D02*
X8500000Y-11200000D01*
X13762500Y-5950000D02*
X12897183Y-5950000D01*
X12897183Y-5950000D02*
X11400000Y-7447183D01*
%TO.N,Net-(U1-PA4)*%
X8900000Y-3900000D02*
X4800000Y-3900000D01*
X8902817Y-5300000D02*
X9225000Y-4977817D01*
X4800000Y-3900000D02*
X4762500Y-3862500D01*
X8037500Y-5300000D02*
X8902817Y-5300000D01*
X9225000Y-4977817D02*
X9225000Y-4225000D01*
X9225000Y-4225000D02*
X8900000Y-3900000D01*
X4762500Y-3862500D02*
X4762500Y-3050000D01*
%TO.N,Net-(U1-PA6)*%
X11062500Y-3050000D02*
X11062500Y-4440317D01*
X8902817Y-6600000D02*
X8037500Y-6600000D01*
X11062500Y-4440317D02*
X8902817Y-6600000D01*
%TO.N,Net-(U1-PB3)*%
X8037500Y-7900000D02*
X6979594Y-7900000D01*
X6304594Y-7225000D02*
X6300000Y-7225000D01*
X6979594Y-7900000D02*
X6304594Y-7225000D01*
%TD*%
%TA.AperFunction,Conductor*%
%TO.N,GND*%
G36*
X15504162Y-969D02*
G01*
X15526356Y-3469D01*
X15603273Y-13596D01*
X15633034Y-20682D01*
X15664404Y-31659D01*
X15668305Y-33148D01*
X15720243Y-54661D01*
X15742488Y-66154D01*
X15775012Y-86590D01*
X15780730Y-90568D01*
X15802261Y-107089D01*
X15827554Y-126497D01*
X15834881Y-132923D01*
X15867075Y-165117D01*
X15873508Y-172452D01*
X15909430Y-219268D01*
X15913408Y-224986D01*
X15933844Y-257510D01*
X15945343Y-279767D01*
X15966849Y-331690D01*
X15968339Y-335594D01*
X15979316Y-366964D01*
X15986403Y-396728D01*
X15996530Y-473647D01*
X15999031Y-495841D01*
X15999500Y-504191D01*
X15999500Y-12495808D01*
X15999031Y-12504158D01*
X15996530Y-12526352D01*
X15986403Y-12603271D01*
X15979316Y-12633034D01*
X15968339Y-12664404D01*
X15966849Y-12668308D01*
X15945343Y-12720231D01*
X15933844Y-12742488D01*
X15913408Y-12775012D01*
X15909430Y-12780730D01*
X15873508Y-12827546D01*
X15867075Y-12834881D01*
X15834881Y-12867075D01*
X15827546Y-12873508D01*
X15780730Y-12909430D01*
X15775012Y-12913408D01*
X15742488Y-12933844D01*
X15720231Y-12945343D01*
X15668308Y-12966849D01*
X15664404Y-12968339D01*
X15633034Y-12979316D01*
X15603271Y-12986403D01*
X15526352Y-12996530D01*
X15504158Y-12999031D01*
X15495808Y-12999500D01*
X504191Y-12999500D01*
X495841Y-12999031D01*
X473647Y-12996530D01*
X396728Y-12986403D01*
X366964Y-12979316D01*
X335594Y-12968339D01*
X331690Y-12966849D01*
X279767Y-12945343D01*
X257510Y-12933844D01*
X224986Y-12913408D01*
X219268Y-12909430D01*
X184348Y-12882635D01*
X172448Y-12873504D01*
X165117Y-12867075D01*
X132923Y-12834881D01*
X126497Y-12827554D01*
X107089Y-12802261D01*
X90568Y-12780730D01*
X86590Y-12775012D01*
X66154Y-12742488D01*
X54661Y-12720243D01*
X33148Y-12668305D01*
X31659Y-12664404D01*
X20682Y-12633034D01*
X13596Y-12603273D01*
X3468Y-12526343D01*
X969Y-12504162D01*
X500Y-12495814D01*
X500Y-9004275D01*
X749500Y-9004275D01*
X752353Y-9034695D01*
X752353Y-9034697D01*
X752354Y-9034699D01*
X757883Y-9050499D01*
X797207Y-9162883D01*
X877848Y-9272148D01*
X877851Y-9272151D01*
X987116Y-9352792D01*
X987117Y-9352792D01*
X987118Y-9352793D01*
X1115301Y-9397646D01*
X1145734Y-9400500D01*
X1145741Y-9400500D01*
X1554259Y-9400500D01*
X1554266Y-9400500D01*
X1584699Y-9397646D01*
X1712882Y-9352793D01*
X1822150Y-9272150D01*
X1902793Y-9162882D01*
X1947646Y-9034699D01*
X1950500Y-9004266D01*
X1950499Y-7974500D01*
X1970462Y-7900000D01*
X2025000Y-7845462D01*
X2099500Y-7825500D01*
X2500500Y-7825500D01*
X2575000Y-7845462D01*
X2629538Y-7900000D01*
X2649500Y-7974500D01*
X2649500Y-9004275D01*
X2652353Y-9034695D01*
X2652353Y-9034697D01*
X2652354Y-9034699D01*
X2657883Y-9050499D01*
X2697207Y-9162882D01*
X2720385Y-9194288D01*
X2748562Y-9266084D01*
X2749499Y-9282766D01*
X2749500Y-9900500D01*
X2729538Y-9975000D01*
X2675000Y-10029538D01*
X2600500Y-10049500D01*
X2235133Y-10049500D01*
X2210010Y-10052414D01*
X2210007Y-10052415D01*
X2107235Y-10097793D01*
X2027793Y-10177235D01*
X1982416Y-10280005D01*
X1982415Y-10280008D01*
X1982415Y-10280009D01*
X1979500Y-10305135D01*
X1979500Y-10305136D01*
X1979500Y-10305140D01*
X1979500Y-12094866D01*
X1982414Y-12119989D01*
X1982415Y-12119992D01*
X2027793Y-12222764D01*
X2027794Y-12222765D01*
X2107235Y-12302206D01*
X2210009Y-12347585D01*
X2235135Y-12350500D01*
X4024864Y-12350499D01*
X4024866Y-12350499D01*
X4037427Y-12349042D01*
X4049991Y-12347585D01*
X4152765Y-12302206D01*
X4232206Y-12222765D01*
X4277585Y-12119991D01*
X4280500Y-12094865D01*
X4280500Y-11200004D01*
X7054571Y-11200004D01*
X7074243Y-11412305D01*
X7132593Y-11617385D01*
X7132594Y-11617387D01*
X7227636Y-11808259D01*
X7356127Y-11978406D01*
X7356128Y-11978407D01*
X7511441Y-12119994D01*
X7513697Y-12122051D01*
X7513698Y-12122052D01*
X7694977Y-12234296D01*
X7694983Y-12234299D01*
X7782189Y-12268082D01*
X7893802Y-12311321D01*
X8103390Y-12350500D01*
X8103393Y-12350500D01*
X8316607Y-12350500D01*
X8316610Y-12350500D01*
X8526198Y-12311321D01*
X8725019Y-12234298D01*
X8906302Y-12122052D01*
X9063872Y-11978407D01*
X9192366Y-11808255D01*
X9287405Y-11617389D01*
X9336688Y-11444177D01*
X9376276Y-11377986D01*
X9443657Y-11340455D01*
X9520776Y-11341643D01*
X9586969Y-11381231D01*
X9623312Y-11444179D01*
X9672593Y-11617385D01*
X9672594Y-11617387D01*
X9767636Y-11808259D01*
X9896127Y-11978406D01*
X9896128Y-11978407D01*
X10051441Y-12119994D01*
X10053697Y-12122051D01*
X10053698Y-12122052D01*
X10234977Y-12234296D01*
X10234983Y-12234299D01*
X10322189Y-12268082D01*
X10433802Y-12311321D01*
X10643390Y-12350500D01*
X10643393Y-12350500D01*
X10856607Y-12350500D01*
X10856610Y-12350500D01*
X11066198Y-12311321D01*
X11265019Y-12234298D01*
X11446302Y-12122052D01*
X11603872Y-11978407D01*
X11732366Y-11808255D01*
X11827405Y-11617389D01*
X11876688Y-11444177D01*
X11916276Y-11377986D01*
X11983657Y-11340455D01*
X12060776Y-11341643D01*
X12126969Y-11381231D01*
X12163312Y-11444179D01*
X12212593Y-11617385D01*
X12212594Y-11617387D01*
X12307636Y-11808259D01*
X12436127Y-11978406D01*
X12436128Y-11978407D01*
X12591441Y-12119994D01*
X12593697Y-12122051D01*
X12593698Y-12122052D01*
X12774977Y-12234296D01*
X12774983Y-12234299D01*
X12862189Y-12268082D01*
X12973802Y-12311321D01*
X13183390Y-12350500D01*
X13183393Y-12350500D01*
X13396607Y-12350500D01*
X13396610Y-12350500D01*
X13606198Y-12311321D01*
X13805019Y-12234298D01*
X13986302Y-12122052D01*
X14143872Y-11978407D01*
X14272366Y-11808255D01*
X14367405Y-11617389D01*
X14425756Y-11412310D01*
X14445429Y-11200000D01*
X14425756Y-10987690D01*
X14399740Y-10896254D01*
X14398552Y-10819135D01*
X14436083Y-10751754D01*
X14437632Y-10750180D01*
X15304529Y-9883282D01*
X15329330Y-9863298D01*
X15331128Y-9862143D01*
X15364824Y-9823254D01*
X15368404Y-9819407D01*
X15379220Y-9808593D01*
X15388367Y-9796372D01*
X15391685Y-9792254D01*
X15425377Y-9753373D01*
X15426259Y-9751439D01*
X15442517Y-9724039D01*
X15443796Y-9722331D01*
X15461772Y-9674132D01*
X15463803Y-9669231D01*
X15474327Y-9646187D01*
X15485165Y-9622457D01*
X15485467Y-9620355D01*
X15493349Y-9589470D01*
X15494091Y-9587483D01*
X15497761Y-9536158D01*
X15498325Y-9530919D01*
X15500500Y-9515799D01*
X15500500Y-9500536D01*
X15500690Y-9495219D01*
X15504359Y-9443928D01*
X15504359Y-9443926D01*
X15503905Y-9441839D01*
X15500500Y-9410169D01*
X15500500Y-7042015D01*
X15503905Y-7010343D01*
X15504359Y-7008254D01*
X15502132Y-6977127D01*
X15500689Y-6956955D01*
X15500500Y-6951645D01*
X15500500Y-6936383D01*
X15500092Y-6933552D01*
X15498325Y-6921259D01*
X15497761Y-6916020D01*
X15494091Y-6864700D01*
X15493347Y-6862707D01*
X15485468Y-6831838D01*
X15485165Y-6829726D01*
X15463801Y-6782946D01*
X15461773Y-6778052D01*
X15443796Y-6729852D01*
X15442514Y-6728139D01*
X15426260Y-6700743D01*
X15425378Y-6698812D01*
X15425377Y-6698811D01*
X15425377Y-6698810D01*
X15391700Y-6659944D01*
X15388362Y-6655802D01*
X15379221Y-6643591D01*
X15368434Y-6632804D01*
X15364809Y-6628910D01*
X15331128Y-6590040D01*
X15329326Y-6588882D01*
X15304527Y-6568897D01*
X15031101Y-6295470D01*
X15011111Y-6270663D01*
X15009962Y-6268875D01*
X15009961Y-6268874D01*
X15009960Y-6268872D01*
X14971086Y-6235188D01*
X14967201Y-6231570D01*
X14956410Y-6220779D01*
X14953758Y-6218794D01*
X14944180Y-6211623D01*
X14940047Y-6208293D01*
X14932632Y-6201868D01*
X14901190Y-6174623D01*
X14901189Y-6174622D01*
X14901184Y-6174619D01*
X14899246Y-6173734D01*
X14871865Y-6157488D01*
X14861622Y-6149821D01*
X14863800Y-6146910D01*
X14822286Y-6107343D01*
X14800542Y-6033343D01*
X14800499Y-6029833D01*
X14800499Y-5818482D01*
X14785646Y-5724696D01*
X14769314Y-5692644D01*
X14753278Y-5617203D01*
X14769314Y-5557354D01*
X14785646Y-5525304D01*
X14800500Y-5431519D01*
X14800499Y-5168482D01*
X14785646Y-5074696D01*
X14728050Y-4961658D01*
X14638342Y-4871950D01*
X14638341Y-4871949D01*
X14525305Y-4814354D01*
X14509673Y-4811878D01*
X14431519Y-4799500D01*
X14431514Y-4799500D01*
X13093481Y-4799500D01*
X12999695Y-4814354D01*
X12999693Y-4814355D01*
X12886657Y-4871950D01*
X12796950Y-4961657D01*
X12739354Y-5074694D01*
X12739353Y-5074696D01*
X12739354Y-5074696D01*
X12724500Y-5168481D01*
X12724500Y-5168482D01*
X12724500Y-5168485D01*
X12724500Y-5379767D01*
X12704538Y-5454267D01*
X12661494Y-5497310D01*
X12663376Y-5499824D01*
X12653132Y-5507491D01*
X12625758Y-5523733D01*
X12623811Y-5524621D01*
X12623808Y-5524624D01*
X12584948Y-5558294D01*
X12580814Y-5561626D01*
X12568597Y-5570773D01*
X12568581Y-5570787D01*
X12557793Y-5581574D01*
X12553903Y-5585196D01*
X12515035Y-5618876D01*
X12513880Y-5620675D01*
X12493899Y-5645468D01*
X11095468Y-7043899D01*
X11070675Y-7063880D01*
X11068876Y-7065035D01*
X11035196Y-7103903D01*
X11031574Y-7107793D01*
X11020787Y-7118581D01*
X11020773Y-7118597D01*
X11011626Y-7130814D01*
X11008294Y-7134948D01*
X10974624Y-7173808D01*
X10974621Y-7173811D01*
X10973733Y-7175758D01*
X10957491Y-7203132D01*
X10956204Y-7204850D01*
X10956203Y-7204853D01*
X10938234Y-7253029D01*
X10936199Y-7257941D01*
X10914835Y-7304724D01*
X10914832Y-7304733D01*
X10914528Y-7306853D01*
X10906658Y-7337687D01*
X10905911Y-7339688D01*
X10905908Y-7339702D01*
X10902240Y-7390989D01*
X10901672Y-7396271D01*
X10899500Y-7411384D01*
X10899500Y-7426645D01*
X10899310Y-7431955D01*
X10898636Y-7441380D01*
X10895640Y-7483254D01*
X10896095Y-7485343D01*
X10899500Y-7517015D01*
X10899500Y-8030967D01*
X10879538Y-8105467D01*
X10855859Y-8136326D01*
X8866803Y-10125382D01*
X8800008Y-10163946D01*
X8722880Y-10163946D01*
X8707619Y-10158961D01*
X8526204Y-10088681D01*
X8526200Y-10088680D01*
X8526198Y-10088679D01*
X8484280Y-10080843D01*
X8316614Y-10049500D01*
X8316610Y-10049500D01*
X8103390Y-10049500D01*
X8103385Y-10049500D01*
X7893802Y-10088679D01*
X7893795Y-10088681D01*
X7694983Y-10165700D01*
X7694977Y-10165703D01*
X7513698Y-10277947D01*
X7513697Y-10277948D01*
X7356127Y-10421593D01*
X7227636Y-10591740D01*
X7132594Y-10782612D01*
X7132593Y-10782614D01*
X7074243Y-10987694D01*
X7054571Y-11199995D01*
X7054571Y-11200004D01*
X4280500Y-11200004D01*
X4280499Y-10305136D01*
X4277585Y-10280009D01*
X4232206Y-10177235D01*
X4152765Y-10097794D01*
X4152764Y-10097793D01*
X4049994Y-10052416D01*
X4049991Y-10052415D01*
X4049982Y-10052414D01*
X4024865Y-10049500D01*
X4024859Y-10049500D01*
X3899500Y-10049500D01*
X3825000Y-10029538D01*
X3770462Y-9975000D01*
X3750500Y-9900500D01*
X3750500Y-9282766D01*
X3770462Y-9208266D01*
X3779616Y-9194285D01*
X3804168Y-9161019D01*
X3864470Y-9112932D01*
X3924052Y-9100500D01*
X3943528Y-9100500D01*
X4018028Y-9120462D01*
X4062251Y-9159468D01*
X4092608Y-9199499D01*
X4149922Y-9275078D01*
X4163622Y-9285467D01*
X4265020Y-9362361D01*
X4265023Y-9362362D01*
X4265025Y-9362364D01*
X4332217Y-9388861D01*
X4399409Y-9415359D01*
X4415260Y-9417262D01*
X4483856Y-9425500D01*
X4483857Y-9425500D01*
X5016143Y-9425500D01*
X5016144Y-9425500D01*
X5100590Y-9415359D01*
X5234975Y-9362364D01*
X5350078Y-9275078D01*
X5437364Y-9159975D01*
X5490359Y-9025590D01*
X5500500Y-8941144D01*
X5500500Y-8358856D01*
X5490359Y-8274410D01*
X5473289Y-8231125D01*
X5437364Y-8140026D01*
X5437361Y-8140020D01*
X5384547Y-8070376D01*
X5350078Y-8024922D01*
X5325883Y-8006574D01*
X5234979Y-7937638D01*
X5234973Y-7937635D01*
X5100590Y-7884640D01*
X5016147Y-7874500D01*
X5016144Y-7874500D01*
X4483856Y-7874500D01*
X4483852Y-7874500D01*
X4399409Y-7884640D01*
X4265026Y-7937635D01*
X4265025Y-7937636D01*
X4149920Y-8024923D01*
X4138084Y-8040532D01*
X4077163Y-8087832D01*
X4019361Y-8099500D01*
X3999500Y-8099500D01*
X3925000Y-8079538D01*
X3870462Y-8025000D01*
X3850500Y-7950500D01*
X3850500Y-7870741D01*
X3850499Y-7870724D01*
X3847646Y-7840304D01*
X3847646Y-7840301D01*
X3802793Y-7712118D01*
X3757128Y-7650244D01*
X3740535Y-7616809D01*
X3739594Y-7617240D01*
X3713801Y-7560764D01*
X3711773Y-7555869D01*
X3693796Y-7507669D01*
X3692514Y-7505956D01*
X3676260Y-7478560D01*
X3675378Y-7476629D01*
X3675377Y-7476628D01*
X3675377Y-7476627D01*
X3641700Y-7437762D01*
X3638370Y-7433628D01*
X3633142Y-7426645D01*
X3629221Y-7421407D01*
X3618424Y-7410610D01*
X3614802Y-7406719D01*
X3581128Y-7367857D01*
X3581125Y-7367855D01*
X3579327Y-7366699D01*
X3554529Y-7346715D01*
X3538118Y-7330304D01*
X3499554Y-7263509D01*
X3499554Y-7186381D01*
X3538118Y-7119586D01*
X3594267Y-7084306D01*
X3612882Y-7077793D01*
X3722150Y-6997150D01*
X3802793Y-6887882D01*
X3847646Y-6759699D01*
X3850500Y-6729266D01*
X3850500Y-6219489D01*
X3870462Y-6144989D01*
X3925000Y-6090451D01*
X3999500Y-6070489D01*
X4074000Y-6090451D01*
X4118222Y-6129457D01*
X4152473Y-6174623D01*
X4173132Y-6201866D01*
X4173134Y-6201868D01*
X4195767Y-6219031D01*
X4286868Y-6288115D01*
X4419654Y-6340479D01*
X4503098Y-6350500D01*
X4503099Y-6350500D01*
X5096901Y-6350500D01*
X5096902Y-6350500D01*
X5180346Y-6340479D01*
X5313132Y-6288115D01*
X5426867Y-6201867D01*
X5458045Y-6160752D01*
X5518964Y-6113453D01*
X5595373Y-6102950D01*
X5666061Y-6131504D01*
X5782666Y-6218794D01*
X5782670Y-6218797D01*
X5894198Y-6260394D01*
X5957025Y-6305133D01*
X5989066Y-6375291D01*
X5981735Y-6452069D01*
X5936996Y-6514896D01*
X5894198Y-6539606D01*
X5782670Y-6581202D01*
X5782666Y-6581204D01*
X5667455Y-6667452D01*
X5667452Y-6667455D01*
X5581204Y-6782666D01*
X5581202Y-6782670D01*
X5530908Y-6917517D01*
X5524500Y-6977114D01*
X5524500Y-7472863D01*
X5524502Y-7472888D01*
X5530908Y-7532478D01*
X5530909Y-7532484D01*
X5581202Y-7667329D01*
X5581204Y-7667333D01*
X5667452Y-7782544D01*
X5667455Y-7782547D01*
X5782666Y-7868795D01*
X5782670Y-7868797D01*
X5917517Y-7919091D01*
X5977114Y-7925499D01*
X5977118Y-7925499D01*
X5977127Y-7925500D01*
X6235560Y-7925499D01*
X6310061Y-7945461D01*
X6340920Y-7969140D01*
X6576309Y-8204529D01*
X6596293Y-8229327D01*
X6597449Y-8231125D01*
X6597451Y-8231128D01*
X6636313Y-8264802D01*
X6640207Y-8268427D01*
X6651001Y-8279221D01*
X6658803Y-8285061D01*
X6663222Y-8288370D01*
X6667356Y-8291700D01*
X6706221Y-8325377D01*
X6706222Y-8325377D01*
X6706223Y-8325378D01*
X6708154Y-8326260D01*
X6735550Y-8342514D01*
X6737263Y-8343796D01*
X6785463Y-8361773D01*
X6790357Y-8363801D01*
X6837137Y-8385165D01*
X6839249Y-8385468D01*
X6870118Y-8393347D01*
X6872111Y-8394091D01*
X6872112Y-8394091D01*
X6872115Y-8394092D01*
X6882165Y-8396278D01*
X6950721Y-8431616D01*
X6992423Y-8496498D01*
X6999500Y-8541873D01*
X6999500Y-8681513D01*
X6999501Y-8681518D01*
X7014354Y-8775304D01*
X7071950Y-8888342D01*
X7161658Y-8978050D01*
X7274696Y-9035646D01*
X7368481Y-9050500D01*
X8706518Y-9050499D01*
X8800304Y-9035646D01*
X8913342Y-8978050D01*
X9003050Y-8888342D01*
X9060646Y-8775304D01*
X9075500Y-8681519D01*
X9075499Y-8418482D01*
X9060646Y-8324696D01*
X9044314Y-8292644D01*
X9028279Y-8217202D01*
X9044315Y-8157355D01*
X9060646Y-8125304D01*
X9075500Y-8031519D01*
X9075499Y-7768482D01*
X9060646Y-7674696D01*
X9044314Y-7642644D01*
X9028278Y-7567203D01*
X9044314Y-7507354D01*
X9060646Y-7475304D01*
X9075500Y-7381519D01*
X9075499Y-7170232D01*
X9095461Y-7095733D01*
X9138487Y-7052705D01*
X9136605Y-7050191D01*
X9145143Y-7043797D01*
X9145148Y-7043796D01*
X9146856Y-7042517D01*
X9174256Y-7026259D01*
X9176190Y-7025377D01*
X9215063Y-6991691D01*
X9219178Y-6988376D01*
X9231410Y-6979221D01*
X9242208Y-6968421D01*
X9246078Y-6964817D01*
X9284960Y-6931128D01*
X9286111Y-6929336D01*
X9306096Y-6904533D01*
X11367033Y-4843596D01*
X11391836Y-4823611D01*
X11393628Y-4822460D01*
X11427317Y-4783578D01*
X11430924Y-4779706D01*
X11441721Y-4768910D01*
X11450876Y-4756678D01*
X11454191Y-4752563D01*
X11487877Y-4713690D01*
X11488759Y-4711756D01*
X11505017Y-4684356D01*
X11506296Y-4682648D01*
X11524272Y-4634449D01*
X11526303Y-4629548D01*
X11547665Y-4582774D01*
X11547967Y-4580672D01*
X11555849Y-4549787D01*
X11556591Y-4547800D01*
X11560261Y-4496475D01*
X11560825Y-4491236D01*
X11563000Y-4476116D01*
X11563000Y-4460853D01*
X11563190Y-4455536D01*
X11566859Y-4404245D01*
X11566859Y-4404243D01*
X11566405Y-4402156D01*
X11563000Y-4370486D01*
X11563000Y-3799300D01*
X11582962Y-3724800D01*
X11637500Y-3670262D01*
X11700882Y-3651690D01*
X11700801Y-3650825D01*
X11704266Y-3650500D01*
X11734699Y-3647646D01*
X11862882Y-3602793D01*
X11972150Y-3522150D01*
X12052793Y-3412882D01*
X12097646Y-3284699D01*
X12100500Y-3254266D01*
X12100500Y-2845734D01*
X12097646Y-2815301D01*
X12052793Y-2687118D01*
X11972150Y-2577850D01*
X11972148Y-2577848D01*
X11862883Y-2497207D01*
X11803042Y-2476268D01*
X11734699Y-2452354D01*
X11734697Y-2452353D01*
X11734695Y-2452353D01*
X11704275Y-2449500D01*
X11704266Y-2449500D01*
X10420734Y-2449500D01*
X10420724Y-2449500D01*
X10390304Y-2452353D01*
X10262116Y-2497207D01*
X10152851Y-2577848D01*
X10152848Y-2577851D01*
X10072207Y-2687116D01*
X10027353Y-2815304D01*
X10024500Y-2845724D01*
X10024500Y-3254275D01*
X10027353Y-3284695D01*
X10072207Y-3412883D01*
X10152848Y-3522148D01*
X10152851Y-3522151D01*
X10262116Y-3602792D01*
X10262117Y-3602792D01*
X10262118Y-3602793D01*
X10390301Y-3647646D01*
X10420734Y-3650500D01*
X10424199Y-3650825D01*
X10424108Y-3651794D01*
X10493413Y-3673862D01*
X10545359Y-3730873D01*
X10562000Y-3799300D01*
X10562000Y-4171284D01*
X10542038Y-4245784D01*
X10518359Y-4276643D01*
X9979859Y-4815143D01*
X9913064Y-4853707D01*
X9835936Y-4853707D01*
X9769141Y-4815143D01*
X9730577Y-4748348D01*
X9725500Y-4709784D01*
X9725500Y-4294827D01*
X9728905Y-4263154D01*
X9729358Y-4261073D01*
X9725689Y-4209782D01*
X9725500Y-4204472D01*
X9725500Y-4189207D01*
X9725500Y-4189201D01*
X9723324Y-4174074D01*
X9722758Y-4168804D01*
X9720403Y-4135873D01*
X9719091Y-4117517D01*
X9718349Y-4115529D01*
X9710467Y-4084644D01*
X9710165Y-4082545D01*
X9710165Y-4082543D01*
X9688793Y-4035746D01*
X9686766Y-4030852D01*
X9668795Y-3982669D01*
X9667514Y-3980958D01*
X9651259Y-3953559D01*
X9650377Y-3951627D01*
X9639700Y-3939305D01*
X9616704Y-3912766D01*
X9613365Y-3908623D01*
X9612011Y-3906814D01*
X9604220Y-3896406D01*
X9593427Y-3885613D01*
X9589802Y-3881719D01*
X9556128Y-3842857D01*
X9556125Y-3842855D01*
X9554327Y-3841699D01*
X9529529Y-3821715D01*
X9303284Y-3595470D01*
X9283294Y-3570663D01*
X9282145Y-3568875D01*
X9282140Y-3568869D01*
X9243279Y-3535196D01*
X9239385Y-3531571D01*
X9228593Y-3520779D01*
X9216363Y-3511623D01*
X9212230Y-3508293D01*
X9173372Y-3474622D01*
X9173367Y-3474619D01*
X9171429Y-3473734D01*
X9144048Y-3457488D01*
X9142335Y-3456206D01*
X9142332Y-3456205D01*
X9142331Y-3456204D01*
X9094154Y-3438234D01*
X9089238Y-3436198D01*
X9042459Y-3414836D01*
X9042452Y-3414833D01*
X9040332Y-3414529D01*
X9009484Y-3406655D01*
X9007487Y-3405910D01*
X9007478Y-3405908D01*
X8956194Y-3402240D01*
X8950911Y-3401672D01*
X8940060Y-3400112D01*
X8935799Y-3399500D01*
X8935798Y-3399500D01*
X8920536Y-3399500D01*
X8915226Y-3399310D01*
X8904615Y-3398551D01*
X8863927Y-3395640D01*
X8861840Y-3396095D01*
X8830168Y-3399500D01*
X5949500Y-3399500D01*
X5875000Y-3379538D01*
X5820462Y-3325000D01*
X5800500Y-3250500D01*
X5800500Y-2845740D01*
X5800499Y-2845724D01*
X5797646Y-2815304D01*
X5797646Y-2815301D01*
X5752793Y-2687118D01*
X5672150Y-2577850D01*
X5672148Y-2577848D01*
X5562883Y-2497207D01*
X5503042Y-2476268D01*
X5434699Y-2452354D01*
X5434697Y-2452353D01*
X5434695Y-2452353D01*
X5404275Y-2449500D01*
X5404266Y-2449500D01*
X4120734Y-2449500D01*
X4120724Y-2449500D01*
X4090304Y-2452353D01*
X4081447Y-2454288D01*
X4080688Y-2450816D01*
X4021411Y-2455100D01*
X3952010Y-2421451D01*
X3908731Y-2357610D01*
X3900500Y-2308772D01*
X3900500Y-1891227D01*
X3920462Y-1816727D01*
X3975000Y-1762189D01*
X4049500Y-1742227D01*
X4081026Y-1747638D01*
X4081447Y-1745712D01*
X4090296Y-1747644D01*
X4090301Y-1747646D01*
X4120734Y-1750500D01*
X4120741Y-1750500D01*
X5404259Y-1750500D01*
X5404266Y-1750500D01*
X5434699Y-1747646D01*
X5562882Y-1702793D01*
X5589896Y-1682856D01*
X5594288Y-1679615D01*
X5666085Y-1651437D01*
X5682767Y-1650500D01*
X7913479Y-1650500D01*
X7987979Y-1670462D01*
X8042517Y-1725000D01*
X8052090Y-1744838D01*
X8087635Y-1834973D01*
X8087638Y-1834979D01*
X8156574Y-1925883D01*
X8174922Y-1950078D01*
X8220376Y-1984547D01*
X8290020Y-2037361D01*
X8290023Y-2037362D01*
X8290025Y-2037364D01*
X8357217Y-2063861D01*
X8424409Y-2090359D01*
X8440260Y-2092262D01*
X8508856Y-2100500D01*
X8508857Y-2100500D01*
X9091143Y-2100500D01*
X9091144Y-2100500D01*
X9175590Y-2090359D01*
X9309975Y-2037364D01*
X9425078Y-1950078D01*
X9512364Y-1834975D01*
X9545677Y-1750500D01*
X9547910Y-1744838D01*
X9593811Y-1682856D01*
X9664554Y-1652128D01*
X9686521Y-1650500D01*
X10142233Y-1650500D01*
X10216733Y-1670462D01*
X10230712Y-1679615D01*
X10262116Y-1702792D01*
X10262117Y-1702792D01*
X10262118Y-1702793D01*
X10390301Y-1747646D01*
X10420734Y-1750500D01*
X10420741Y-1750500D01*
X11704259Y-1750500D01*
X11704266Y-1750500D01*
X11734699Y-1747646D01*
X11862882Y-1702793D01*
X11972150Y-1622150D01*
X12052793Y-1512882D01*
X12097646Y-1384699D01*
X12100500Y-1354266D01*
X12100500Y-945734D01*
X12097646Y-915301D01*
X12052793Y-787118D01*
X12050088Y-783453D01*
X11972151Y-677851D01*
X11972148Y-677848D01*
X11862883Y-597207D01*
X11803042Y-576268D01*
X11734699Y-552354D01*
X11734697Y-552353D01*
X11734695Y-552353D01*
X11704275Y-549500D01*
X11704266Y-549500D01*
X10420734Y-549500D01*
X10420724Y-549500D01*
X10390304Y-552353D01*
X10262116Y-597207D01*
X10230712Y-620385D01*
X10158915Y-648563D01*
X10142233Y-649500D01*
X9304982Y-649500D01*
X9250320Y-639111D01*
X9226045Y-629538D01*
X9175590Y-609641D01*
X9175587Y-609640D01*
X9175585Y-609640D01*
X9091147Y-599500D01*
X9091144Y-599500D01*
X8508856Y-599500D01*
X8508852Y-599500D01*
X8424414Y-609640D01*
X8424410Y-609640D01*
X8424410Y-609641D01*
X8424408Y-609641D01*
X8424407Y-609642D01*
X8349680Y-639111D01*
X8295018Y-649500D01*
X5682767Y-649500D01*
X5608267Y-629538D01*
X5594288Y-620385D01*
X5562883Y-597207D01*
X5503042Y-576268D01*
X5434699Y-552354D01*
X5434697Y-552353D01*
X5434695Y-552353D01*
X5404275Y-549500D01*
X5404266Y-549500D01*
X4120734Y-549500D01*
X4120724Y-549500D01*
X4090304Y-552353D01*
X3962116Y-597207D01*
X3930712Y-620385D01*
X3858915Y-648563D01*
X3842233Y-649500D01*
X3719827Y-649500D01*
X3688156Y-646095D01*
X3686071Y-645641D01*
X3645230Y-648563D01*
X3634782Y-649310D01*
X3629472Y-649500D01*
X3614199Y-649500D01*
X3599078Y-651673D01*
X3593796Y-652241D01*
X3542519Y-655908D01*
X3542512Y-655910D01*
X3540507Y-656658D01*
X3509671Y-664528D01*
X3507553Y-664832D01*
X3507538Y-664836D01*
X3460764Y-686197D01*
X3455853Y-688231D01*
X3407667Y-706205D01*
X3407661Y-706208D01*
X3405947Y-707492D01*
X3378581Y-723730D01*
X3376630Y-724621D01*
X3376624Y-724624D01*
X3337767Y-758293D01*
X3333630Y-761628D01*
X3321411Y-770775D01*
X3321399Y-770785D01*
X3310610Y-781574D01*
X3306720Y-785196D01*
X3267852Y-818876D01*
X3266697Y-820675D01*
X3246716Y-845468D01*
X3095468Y-996716D01*
X3070675Y-1016697D01*
X3068876Y-1017852D01*
X3035196Y-1056720D01*
X3031574Y-1060610D01*
X3020787Y-1071398D01*
X3020773Y-1071414D01*
X3011626Y-1083631D01*
X3008294Y-1087765D01*
X2974624Y-1126625D01*
X2974621Y-1126628D01*
X2973733Y-1128575D01*
X2957491Y-1155949D01*
X2956204Y-1157667D01*
X2956203Y-1157670D01*
X2938234Y-1205846D01*
X2936199Y-1210758D01*
X2914835Y-1257541D01*
X2914832Y-1257550D01*
X2914528Y-1259670D01*
X2906658Y-1290504D01*
X2905911Y-1292505D01*
X2905908Y-1292519D01*
X2902240Y-1343806D01*
X2901672Y-1349088D01*
X2899500Y-1364201D01*
X2899500Y-1379462D01*
X2899310Y-1384780D01*
X2895640Y-1436071D01*
X2896095Y-1438160D01*
X2899500Y-1469832D01*
X2899500Y-3575500D01*
X2879538Y-3650000D01*
X2825000Y-3704538D01*
X2750500Y-3724500D01*
X2633852Y-3724500D01*
X2549409Y-3734640D01*
X2415026Y-3787635D01*
X2415020Y-3787638D01*
X2299924Y-3874920D01*
X2299920Y-3874924D01*
X2212638Y-3990020D01*
X2212635Y-3990026D01*
X2159640Y-4124409D01*
X2149500Y-4208852D01*
X2149500Y-4480968D01*
X2129538Y-4555468D01*
X2105859Y-4586327D01*
X1536327Y-5155859D01*
X1469532Y-5194423D01*
X1430968Y-5199500D01*
X1145724Y-5199500D01*
X1115304Y-5202353D01*
X987116Y-5247207D01*
X877851Y-5327848D01*
X877848Y-5327851D01*
X797207Y-5437116D01*
X752353Y-5565304D01*
X749500Y-5595724D01*
X749500Y-6729275D01*
X752353Y-6759695D01*
X752353Y-6759697D01*
X752354Y-6759699D01*
X768044Y-6804538D01*
X797207Y-6887883D01*
X877848Y-6997148D01*
X877851Y-6997151D01*
X987117Y-7077793D01*
X1005731Y-7084306D01*
X1069458Y-7127753D01*
X1102923Y-7197242D01*
X1097160Y-7274155D01*
X1061880Y-7330304D01*
X1045468Y-7346716D01*
X1020675Y-7366697D01*
X1018876Y-7367852D01*
X985196Y-7406720D01*
X981574Y-7410610D01*
X970787Y-7421398D01*
X970773Y-7421414D01*
X961626Y-7433631D01*
X958294Y-7437765D01*
X924624Y-7476625D01*
X924621Y-7476628D01*
X923733Y-7478575D01*
X907491Y-7505949D01*
X906204Y-7507667D01*
X906203Y-7507670D01*
X888234Y-7555846D01*
X886200Y-7560757D01*
X860410Y-7617233D01*
X859470Y-7616803D01*
X842872Y-7650243D01*
X830263Y-7667329D01*
X797206Y-7712119D01*
X752353Y-7840304D01*
X749500Y-7870724D01*
X749500Y-9004275D01*
X500Y-9004275D01*
X500Y-504184D01*
X969Y-495836D01*
X3469Y-473647D01*
X13596Y-396721D01*
X20682Y-366964D01*
X31659Y-335594D01*
X33138Y-331717D01*
X54665Y-279746D01*
X66148Y-257520D01*
X86604Y-224964D01*
X90560Y-219278D01*
X126509Y-172429D01*
X132908Y-165133D01*
X165133Y-132908D01*
X172429Y-126509D01*
X219278Y-90560D01*
X224964Y-86604D01*
X257520Y-66148D01*
X279746Y-54665D01*
X331717Y-33138D01*
X335594Y-31659D01*
X366968Y-20681D01*
X396721Y-13596D01*
X473613Y-3473D01*
X495839Y-968D01*
X504184Y-500D01*
X15495814Y-500D01*
X15504162Y-969D01*
G37*
%TD.AperFunction*%
%TD*%
M02*
